<svg xmlns="http://www.w3.org/2000/svg" viewBox="0 0 102.22 24.63"><defs><style>.cls-1{fill:#e3001d;}.cls-1,.cls-2{fill-rule:evenodd;}.cls-2{fill:#fff;}</style></defs><g id="Warstwa_2" data-name="Warstwa 2"><g id="Brudnopis"><g id="Logo"><path class="cls-1" d="M27.74,15.85a4.38,4.38,0,1,0,4.39,4.39,4.38,4.38,0,0,0-4.39-4.39Zm-3.51-1.27h6.83L31.41.77H23.88Z"/><path class="cls-2" d="M83.13.37H102.2V6H90.71v4h9.87v5.41H90.71V24H83.13Zm-16.95,15h5.11L68.82,7h-.15ZM73.86,24l-1-3.34H64.58l-1,3.34H55.84L64.46.37h8.82L81.91,24ZM55.24,7.25v.43H48.13V7.53c0-1.25-.84-2.39-3.06-2.39S42,5.86,42,6.68c0,3.54,13.76.75,13.94,9.5,0,5.86-4.47,8.22-10.4,8.22-6.63,0-11.66-1.67-11.66-8.4H41c0,2.55,1.47,3,3.82,3,1.37,0,3.34-.1,3.34-1.57,0-3.39-13.94-.69-13.94-9.87,0-5.48,5-7.55,10.6-7.55S55.14,2.19,55.24,7.25ZM7.58,18.5h5.76a1.76,1.76,0,0,0,1.74-1.85V16.3a1.77,1.77,0,0,0-1.74-1.84H7.58Zm0-8.93h5.21a1.77,1.77,0,0,0,1.74-1.84V7.38a1.8,1.8,0,0,0-1.74-1.82H7.58ZM22.23,6.18c0,3.44-1.82,4.86-3.93,5.49v.12c2.44.55,4.48,2.12,4.48,5.91S19.72,24,15.93,24H0V.37H15.7c3.57,0,6.53,2.42,6.53,5.81Z"/><path class="cls-2" d="M98.24,21.21h1a1.16,1.16,0,0,0,.47-.07.58.58,0,0,0,.28-.2.71.71,0,0,0,.1-.3.49.49,0,0,0-.18-.4.84.84,0,0,0-.55-.15H98.26v1.12Zm-.45,1.9V19.72h1.49a1.7,1.7,0,0,1,.7.1.76.76,0,0,1,.37.32.89.89,0,0,1,.15.5.81.81,0,0,1-.22.6,1.18,1.18,0,0,1-.72.32,1.26,1.26,0,0,1,.27.18,3.45,3.45,0,0,1,.38.44l.59.93h-.59l-.45-.7c-.13-.2-.25-.35-.33-.47a1,1,0,0,0-.22-.23l-.2-.1-.25,0h-.52v1.49h-.45Z"/><path class="cls-2" d="M99,18.2a3.22,3.22,0,1,1-3.22,3.21A3.21,3.21,0,0,1,99,18.2Zm0,.32a2.89,2.89,0,1,1-2.89,2.89A2.9,2.9,0,0,1,99,18.52Z"/></g></g></g></svg>